# xmcd
#
# Track frame offsets:
#	150
#	26471
#	49624
#	74930
#	95897
#	125294
#	159311
#	176516
#	193161
#	223745
#	245115
#	281945
#
# Disc length: 4200 seconds
#
# Revision: 1
# Processed by: cddbd v1.5.2PL0 Copyright (c) Steve Scherf et al.
# Submitted via: audiograbber 1.83.01
#
DISCID=be10660c
DTITLE=Grateful Dead - 77-12-27 Winterland Arena, San Francisco CA
DYEAR=1900
DGENRE=
TTITLE0=Bertha
TTITLE1=Good Lovin'
TTITLE2=Brown Eyed Women
TTITLE3=Cassidy
TTITLE4=Peggy-O
TTITLE5=Looks Like Rain
TTITLE6=Dire Wolf
TTITLE7=Passenger
TTITLE8=Candyman
TTITLE9=El Paso
TTITLE10=Friend Of The Devil
TTITLE11=The Music Never Stopped
EXTD=
EXTT0=
EXTT1=
EXTT2=
EXTT3=
EXTT4=
EXTT5=
EXTT6=
EXTT7=
EXTT8=
EXTT9=
EXTT10=
EXTT11=
PLAYORDER=
